<?xml version="1.0" encoding="UTF-8" standalone="no"?>
<!-- Created with Inkscape (http://www.inkscape.org/) -->

<svg
   xmlns:dc="http://purl.org/dc/elements/1.1/"
   xmlns:cc="http://creativecommons.org/ns#"
   xmlns:rdf="http://www.w3.org/1999/02/22-rdf-syntax-ns#"
   xmlns:svg="http://www.w3.org/2000/svg"
   xmlns="http://www.w3.org/2000/svg"
   xmlns:sodipodi="http://sodipodi.sourceforge.net/DTD/sodipodi-0.dtd"
   xmlns:inkscape="http://www.inkscape.org/namespaces/inkscape"
   width="744.09448"
   height="524.40942"
   id="svg2"
   version="1.1"
   inkscape:version="0.47pre4 "
   sodipodi:docname="Лого.svg">
  <defs
     id="defs4">
    <inkscape:perspective
       sodipodi:type="inkscape:persp3d"
       inkscape:vp_x="0 : 526.18109 : 1"
       inkscape:vp_y="0 : 1000 : 0"
       inkscape:vp_z="744.09448 : 526.18109 : 1"
       inkscape:persp3d-origin="372.04724 : 350.78739 : 1"
       id="perspective10" />
    <inkscape:perspective
       id="perspective3638"
       inkscape:persp3d-origin="0.5 : 0.33333333 : 1"
       inkscape:vp_z="1 : 0.5 : 1"
       inkscape:vp_y="0 : 1000 : 0"
       inkscape:vp_x="0 : 0.5 : 1"
       sodipodi:type="inkscape:persp3d" />
    <inkscape:perspective
       id="perspective3668"
       inkscape:persp3d-origin="0.5 : 0.33333333 : 1"
       inkscape:vp_z="1 : 0.5 : 1"
       inkscape:vp_y="0 : 1000 : 0"
       inkscape:vp_x="0 : 0.5 : 1"
       sodipodi:type="inkscape:persp3d" />
    <inkscape:perspective
       id="perspective3699"
       inkscape:persp3d-origin="0.5 : 0.33333333 : 1"
       inkscape:vp_z="1 : 0.5 : 1"
       inkscape:vp_y="0 : 1000 : 0"
       inkscape:vp_x="0 : 0.5 : 1"
       sodipodi:type="inkscape:persp3d" />
  </defs>
  <sodipodi:namedview
     id="base"
     pagecolor="#ffffff"
     bordercolor="#666666"
     borderopacity="1.0"
     inkscape:pageopacity="0.0"
     inkscape:pageshadow="2"
     inkscape:zoom="0.74118969"
     inkscape:cx="129.30749"
     inkscape:cy="278.85429"
     inkscape:document-units="px"
     inkscape:current-layer="layer1"
     showgrid="false"
     inkscape:window-width="1920"
     inkscape:window-height="1027"
     inkscape:window-x="-8"
     inkscape:window-y="-8"
     inkscape:window-maximized="1" />
  <metadata
     id="metadata7">
    <rdf:RDF>
      <cc:Work
         rdf:about="">
        <dc:format>image/svg+xml</dc:format>
        <dc:type
           rdf:resource="http://purl.org/dc/dcmitype/StillImage" />
        <dc:title></dc:title>
      </cc:Work>
    </rdf:RDF>
  </metadata>
  <g
     inkscape:label="Layer 1"
     inkscape:groupmode="layer"
     id="layer1"
     transform="translate(0,-527.95272)">
    <path
       style="fill:#000000;fill-opacity:1;stroke:#000000;stroke-width:0.26021066px;stroke-linecap:butt;stroke-linejoin:miter;stroke-opacity:1"
       d="m 108.92668,672.05735 c 0,0 16.21302,22.72901 64.24447,23.809 48.78571,1.09696 71.82069,-24.5926 75.87855,-42.02527 7.92375,-34.04062 -21.93589,-33.37706 -21.93589,-33.37706 0,0 17.2684,7.54359 6.02843,25.47798 -19.02989,30.36394 -62.44948,24.4221 -74.40133,19.59939 -11.87284,-4.79083 -19.60822,-15.31769 -19.60822,-15.31769 l -30.20601,21.83365 z"
       id="path2832"
       sodipodi:nodetypes="csscsccc" />
    <path
       style="fill:#000000;fill-opacity:1;stroke:#050000;stroke-width:0.33629063px;stroke-linecap:butt;stroke-linejoin:miter;stroke-opacity:1"
       d="m 190.79745,602.4195 c 0,0 6.69386,4.408 14.39601,16.22067 8.14126,12.48612 4.56091,12.57256 10.45619,19.04833 25.09099,27.5616 48.12111,41.76197 48.12111,41.76197 0,0 -0.55105,5.15032 -3.66526,10.51802 -3.45936,5.9626 -8.31372,12.84043 -8.31372,12.84043 0,0 -21.58637,-14.38246 -39.73688,-38.65495 -9.91336,-15.29567 -10.61641,-16.59655 -21.13882,-31.45673 0,0 -3.01343,4.83522 -6.29901,12.37547 -3.42213,7.85365 -4.60641,21.79026 -4.60641,21.79026 0,0 -9.15688,-2.4298 -18.49721,-17.6355 -6.63151,-10.79583 -7.68249,-17.87794 -7.68249,-17.87794 0,0 4.87808,0.15994 17.20595,-8.00201 11.46194,-9.55779 12.47924,-13.81195 19.76054,-20.92802 z"
       id="path3624"
       sodipodi:nodetypes="csscccccscsccc" />
    <path
       style="fill:#000000;fill-opacity:1;stroke:#000000;stroke-width:0.26470572px;stroke-linecap:butt;stroke-linejoin:miter;stroke-opacity:1"
       d="m 85.553505,617.5356 c 0,0 3.589874,17.55981 6.285653,34.32688 3.149946,19.59186 4.741717,29.36465 4.741717,29.36465 0,0 10.696555,-8.71521 22.897215,-13.54743 14.05614,-5.56711 24.83486,-11.57226 24.83486,-11.57226 0,0 -2.49579,-8.2555 -2.96792,-25.25551 -0.48406,-17.4294 -0.23517,-29.49042 -0.23517,-29.49042 0,0 -15.66175,6.17493 -29.52398,10.24924 -11.787191,3.46442 -26.032375,6.16377 -26.032375,5.92485 z"
       id="path3626"
       sodipodi:nodetypes="cscscscsc" />
    <path
       style="fill:#ffffff;fill-opacity:1;stroke:#000000;stroke-width:0.09690323px;stroke-linecap:butt;stroke-linejoin:miter;stroke-opacity:1"
       d="m 113.16656,616.11171 c -7.69345,2.07629 -8.46409,2.24647 -18.971346,4.70516 1.581399,7.60082 2.31997,8.30548 3.694663,14.80194 7.583173,-3.52609 8.617343,-4.10769 15.633003,-6.80599 -0.46618,-4.80142 -0.34541,-7.80797 -0.35632,-12.70111 z"
       id="path3626-2"
       sodipodi:nodetypes="ccccc" />
    <path
       sodipodi:type="arc"
       style="fill:#ffffff;fill-opacity:1;stroke:#050000;stroke-opacity:1"
       id="path3715"
       sodipodi:cx="115.35509"
       sodipodi:cy="553.16473"
       sodipodi:rx="20.912325"
       sodipodi:ry="32.464264"
       d="m 136.26741,553.16473 a 20.912325,32.464264 0 1 1 -41.824648,0 20.912325,32.464264 0 1 1 41.824648,0 z"
       transform="matrix(0.26499022,0.06935743,-0.07100392,0.25884544,128.07478,489.61054)" />
  </g>
</svg>
